<?xml version="1.0" standalone="no"?>
<!DOCTYPE svg PUBLIC "-//W3C//DTD SVG 1.1//EN" "http://www.w3.org/Graphics/SVG/1.1/DTD/svg11.dtd">
<svg width="800" height="600" version="1.1" xmlns="http://www.w3.org/2000/svg">
<rect width="800" height="600" x="0" y="0" style="fill:rgb(238,238,238);stroke:none"/>
<rect width="800" height="600" x="0" y="0" style="fill:rgb(255,255,255);stroke:none"/>
<text x="2" y="566" fill="rgb(0,0,0)" font-family="Arial" font-size="12">0</text>
<text x="2" y="505" fill="rgb(0,0,0)" font-family="Arial" font-size="12">500000</text>
<text x="2" y="444" fill="rgb(0,0,0)" font-family="Arial" font-size="12">1000000</text>
<text x="2" y="383" fill="rgb(0,0,0)" font-family="Arial" font-size="12">1500000</text>
<text x="2" y="322" fill="rgb(0,0,0)" font-family="Arial" font-size="12">2000000</text>
<text x="2" y="261" fill="rgb(0,0,0)" font-family="Arial" font-size="12">2500000</text>
<text x="2" y="200" fill="rgb(0,0,0)" font-family="Arial" font-size="12">3000000</text>
<text x="2" y="139" fill="rgb(0,0,0)" font-family="Arial" font-size="12">3500000</text>
<text x="2" y="78" fill="rgb(0,0,0)" font-family="Arial" font-size="12">4000000</text>
<text x="299" y="30" fill="rgb(0,0,0)" font-family="Arial" font-size="12">Quality score distribution over all sequences</text>
<line x1="54" y1="560" x2="790" y2="560" stroke="rgb(0,0,0)" stroke-width="1"/>
<line x1="54" y1="560" x2="54" y2="40" stroke="rgb(0,0,0)" stroke-width="1"/>
<text x="295" y="595" fill="rgb(0,0,0)" font-family="Arial" font-size="12">Mean Sequence Quality (Phred Score)</text>
<text x="64" y="575" fill="rgb(0,0,0)" font-family="Arial" font-size="12">19</text>
<rect width="35" height="520" x="89" y="40" style="fill:rgb(230,230,230);stroke:none"/>
<text x="99" y="575" fill="rgb(0,0,0)" font-family="Arial" font-size="12">20</text>
<text x="134" y="575" fill="rgb(0,0,0)" font-family="Arial" font-size="12">21</text>
<rect width="35" height="520" x="159" y="40" style="fill:rgb(230,230,230);stroke:none"/>
<text x="169" y="575" fill="rgb(0,0,0)" font-family="Arial" font-size="12">22</text>
<text x="204" y="575" fill="rgb(0,0,0)" font-family="Arial" font-size="12">23</text>
<rect width="35" height="520" x="229" y="40" style="fill:rgb(230,230,230);stroke:none"/>
<text x="239" y="575" fill="rgb(0,0,0)" font-family="Arial" font-size="12">24</text>
<text x="274" y="575" fill="rgb(0,0,0)" font-family="Arial" font-size="12">25</text>
<rect width="35" height="520" x="299" y="40" style="fill:rgb(230,230,230);stroke:none"/>
<text x="309" y="575" fill="rgb(0,0,0)" font-family="Arial" font-size="12">26</text>
<text x="344" y="575" fill="rgb(0,0,0)" font-family="Arial" font-size="12">27</text>
<rect width="35" height="520" x="369" y="40" style="fill:rgb(230,230,230);stroke:none"/>
<text x="379" y="575" fill="rgb(0,0,0)" font-family="Arial" font-size="12">28</text>
<text x="414" y="575" fill="rgb(0,0,0)" font-family="Arial" font-size="12">29</text>
<rect width="35" height="520" x="439" y="40" style="fill:rgb(230,230,230);stroke:none"/>
<text x="449" y="575" fill="rgb(0,0,0)" font-family="Arial" font-size="12">30</text>
<text x="484" y="575" fill="rgb(0,0,0)" font-family="Arial" font-size="12">31</text>
<rect width="35" height="520" x="509" y="40" style="fill:rgb(230,230,230);stroke:none"/>
<text x="519" y="575" fill="rgb(0,0,0)" font-family="Arial" font-size="12">32</text>
<text x="554" y="575" fill="rgb(0,0,0)" font-family="Arial" font-size="12">33</text>
<rect width="35" height="520" x="579" y="40" style="fill:rgb(230,230,230);stroke:none"/>
<text x="589" y="575" fill="rgb(0,0,0)" font-family="Arial" font-size="12">34</text>
<text x="624" y="575" fill="rgb(0,0,0)" font-family="Arial" font-size="12">35</text>
<rect width="35" height="520" x="649" y="40" style="fill:rgb(230,230,230);stroke:none"/>
<text x="659" y="575" fill="rgb(0,0,0)" font-family="Arial" font-size="12">36</text>
<text x="694" y="575" fill="rgb(0,0,0)" font-family="Arial" font-size="12">37</text>
<rect width="35" height="520" x="719" y="40" style="fill:rgb(230,230,230);stroke:none"/>
<text x="729" y="575" fill="rgb(0,0,0)" font-family="Arial" font-size="12">38</text>
<text x="764" y="575" fill="rgb(0,0,0)" font-family="Arial" font-size="12">39</text>
<line x1="54" y1="560" x2="790" y2="560" stroke="rgb(180,180,180)" stroke-width="1"/>
<line x1="54" y1="499" x2="790" y2="499" stroke="rgb(180,180,180)" stroke-width="1"/>
<line x1="54" y1="438" x2="790" y2="438" stroke="rgb(180,180,180)" stroke-width="1"/>
<line x1="54" y1="377" x2="790" y2="377" stroke="rgb(180,180,180)" stroke-width="1"/>
<line x1="54" y1="316" x2="790" y2="316" stroke="rgb(180,180,180)" stroke-width="1"/>
<line x1="54" y1="255" x2="790" y2="255" stroke="rgb(180,180,180)" stroke-width="1"/>
<line x1="54" y1="194" x2="790" y2="194" stroke="rgb(180,180,180)" stroke-width="1"/>
<line x1="54" y1="133" x2="790" y2="133" stroke="rgb(180,180,180)" stroke-width="1"/>
<line x1="54" y1="72" x2="790" y2="72" stroke="rgb(180,180,180)" stroke-width="1"/>
<line x1="71" y1="560" x2="106" y2="560" stroke="rgb(136,34,85)" stroke-width="1"/>
<line x1="106" y1="560" x2="141" y2="560" stroke="rgb(136,34,85)" stroke-width="1"/>
<line x1="141" y1="560" x2="176" y2="560" stroke="rgb(136,34,85)" stroke-width="1"/>
<line x1="176" y1="560" x2="211" y2="560" stroke="rgb(136,34,85)" stroke-width="1"/>
<line x1="211" y1="560" x2="246" y2="559" stroke="rgb(136,34,85)" stroke-width="1"/>
<line x1="246" y1="559" x2="281" y2="556" stroke="rgb(136,34,85)" stroke-width="1"/>
<line x1="281" y1="556" x2="316" y2="552" stroke="rgb(136,34,85)" stroke-width="1"/>
<line x1="316" y1="552" x2="351" y2="545" stroke="rgb(136,34,85)" stroke-width="1"/>
<line x1="351" y1="545" x2="386" y2="535" stroke="rgb(136,34,85)" stroke-width="1"/>
<line x1="386" y1="535" x2="421" y2="523" stroke="rgb(136,34,85)" stroke-width="1"/>
<line x1="421" y1="523" x2="456" y2="506" stroke="rgb(136,34,85)" stroke-width="1"/>
<line x1="456" y1="506" x2="491" y2="484" stroke="rgb(136,34,85)" stroke-width="1"/>
<line x1="491" y1="484" x2="526" y2="455" stroke="rgb(136,34,85)" stroke-width="1"/>
<line x1="526" y1="455" x2="561" y2="413" stroke="rgb(136,34,85)" stroke-width="1"/>
<line x1="561" y1="413" x2="596" y2="347" stroke="rgb(136,34,85)" stroke-width="1"/>
<line x1="596" y1="347" x2="631" y2="227" stroke="rgb(136,34,85)" stroke-width="1"/>
<line x1="631" y1="227" x2="666" y2="40" stroke="rgb(136,34,85)" stroke-width="1"/>
<line x1="666" y1="40" x2="701" y2="51" stroke="rgb(136,34,85)" stroke-width="1"/>
<line x1="701" y1="51" x2="736" y2="459" stroke="rgb(136,34,85)" stroke-width="1"/>
<line x1="736" y1="459" x2="771" y2="560" stroke="rgb(136,34,85)" stroke-width="1"/>
<rect width="156" height="23" x="634" y="40" style="fill:rgb(255,255,255);stroke:none"/>
<rect width="156" height="23" x="634" y="40" rx="0" ry="0" style="fill:none;stroke-width:1;stroke:rgb(192,192,192)"/>
<text x="637" y="55" fill="rgb(136,34,85)" font-family="Arial" font-size="12" font-weight="bold">Average Quality per read</text>
</svg>
